<svg version="1.2" xmlns="http://www.w3.org/2000/svg" viewBox="0 0 318 59" width="318" height="59">
	<title>Bulk-Indexer-svg</title>
	<defs>
		<clipPath clipPathUnits="userSpaceOnUse" id="cp1">
			<path d="m3.68 6.77h58.13v11.09h-58.13z"/>
		</clipPath>
		<clipPath clipPathUnits="userSpaceOnUse" id="cp2">
			<path d="m3.68 43.73h58.13v11.09h-58.13z"/>
		</clipPath>
		<clipPath clipPathUnits="userSpaceOnUse" id="cp3">
			<path d="m3.68 25.25h72.84v11.09h-72.84z"/>
		</clipPath>
	</defs>
	<style>
		.s0 { fill: #ffd301 } 
		.s1 { fill: #000000 } 
	</style>
	<g id="Clip-Path" clip-path="url(#cp1)">
		<g id="Layer">
			<path id="Layer" class="s0" d="m3.7 6.8h58.1v11.1h-58.1z"/>
		</g>
	</g>
	<g id="Clip-Path" clip-path="url(#cp2)">
		<g id="Layer">
			<path id="Layer" class="s0" d="m3.7 43.7h58.1v11.1h-58.1z"/>
		</g>
	</g>
	<g id="Clip-Path" clip-path="url(#cp3)">
		<g id="Layer">
			<path id="Layer" class="s0" d="m3.7 25.3h72.8v11h-72.8z"/>
		</g>
	</g>
	<g id="Layer">
		<g id="Layer">
			<g id="Layer">
				<path id="Layer" fill-rule="evenodd" class="s1" d="m80.3 14.4h14.8c6.3 0 9.6 2.5 9.6 7.7 0 3.7-2.2 5.6-4.7 6.5 3.2 0.6 5.9 2.7 5.9 7.3 0 6.5-4.1 9-10.4 9h-15.2zm12.9 12.3c2.2 0 3.9-0.5 3.9-3 0-2.6-1.7-3.1-3.9-3.1h-5.2v6.1zm0.2 11.9c3.2 0 4.8-0.8 4.8-3.7 0-2.8-1.6-3.5-4.8-3.5h-5.5v7.2z"/>
			</g>
		</g>
	</g>
	<g id="Layer">
		<g id="Layer">
			<g id="Layer">
				<path id="Layer" class="s1" d="m115.3 45.5c3.9 0 6-1.8 7.2-3.8h0.1v3.2h6.8v-21.8h-6.8v12.6c0 3-1.5 4.3-4.1 4.3-2.3 0-3.4-1.1-3.4-4.4v-12.5h-6.8v14.7c0 5 2.8 7.7 7 7.7z"/>
			</g>
		</g>
	</g>
	<g id="Layer">
		<g id="Layer">
			<g id="Layer">
				<path id="Layer" class="s1" d="m132.8 44.9h6.8v-30.5h-6.8z"/>
			</g>
		</g>
	</g>
	<g id="Layer">
		<g id="Layer">
			<g id="Layer">
				<path id="Layer" class="s1" d="m142.9 44.9h6.9v-6.5l2.1-2.2 5.2 8.7h8.1l-8.6-13.7 7.7-8.1h-8.2l-6.3 7.3v-16h-6.9z"/>
			</g>
		</g>
	</g>
	<g id="Layer">
		<g id="Layer">
			<g id="Layer">
				<path id="Layer" class="s1" d="m167.3 44.9h7.6v-30.5h-7.6z"/>
			</g>
		</g>
	</g>
	<g id="Layer">
		<g id="Layer">
			<g id="Layer">
				<path id="Layer" class="s1" d="m178.7 44.9h6.8v-12.6c0-3.1 1.5-4.4 4.1-4.4 2.2 0 3.4 1.1 3.4 4.4v12.6h6.8v-14.8c0-5-2.9-7.7-7.1-7.7-3.9 0-6 1.8-7.1 3.8h-0.1v-3.1h-6.8z"/>
			</g>
		</g>
	</g>
	<g id="Layer">
		<g id="Layer">
			<g id="Layer">
				<path id="Layer" fill-rule="evenodd" class="s1" d="m202 34c0-7.2 3.7-11.6 9.5-11.6 3.1 0 5.4 1.7 6.3 2.8v-10.8h6.9v30.5h-6.9v-2.2c-0.9 1.1-3.2 2.8-6.3 2.8-5.8 0-9.5-4.4-9.5-11.5zm15.7 0c0-4.3-1.7-6.5-4.5-6.5-2.7 0-4.4 2.2-4.4 6.5 0 4.2 1.7 6.4 4.4 6.4 2.8 0 4.5-2.2 4.5-6.4z"/>
			</g>
		</g>
	</g>
	<g id="Layer">
		<g id="Layer">
			<g id="Layer">
				<path id="Layer" fill-rule="evenodd" class="s1" d="m227 34c0-6.7 4.3-11.6 11.2-11.6 7.5 0 11.3 5.4 11.3 13.4h-15.7c0 3 2.3 4.6 4.7 4.6 2.3 0 3.5-1.1 3.9-2.1h6.8c-1.2 4.4-4.6 7.2-10.6 7.2-7.2 0-11.6-4.7-11.6-11.5zm15.7-2.4c0-3-1.9-4.5-4.5-4.5-2.6 0-4.4 1.5-4.4 4.5z"/>
			</g>
		</g>
	</g>
	<g id="Layer">
		<g id="Layer">
			<g id="Layer">
				<path id="Layer" class="s1" d="m250.5 44.9h7.6l4-6.8 4 6.8h7.6l-7.5-11.1 6.7-10.7h-7.3l-3.5 6.3-3.5-6.3h-7.3l6.7 10.7z"/>
			</g>
		</g>
	</g>
	<g id="Layer">
		<g id="Layer">
			<g id="Layer">
				<path id="Layer" fill-rule="evenodd" class="s1" d="m274.7 34c0-6.7 4.3-11.6 11.2-11.6 7.5 0 11.3 5.4 11.3 13.4h-15.7c0 3 2.3 4.6 4.7 4.6 2.3 0 3.5-1.1 3.9-2.1h6.7c-1.1 4.4-4.6 7.2-10.5 7.2-7.2 0-11.6-4.7-11.6-11.5zm15.7-2.4c0-3-1.9-4.5-4.5-4.5-2.6 0-4.4 1.5-4.4 4.5z"/>
			</g>
		</g>
	</g>
	<g id="Layer">
		<g id="Layer">
			<g id="Layer">
				<path id="Layer" class="s1" d="m299.5 44.9h6.8v-10.2c0-4.6 3.7-6.5 7.2-5.9h0.1v-5.9c-0.7-0.2-1.3-0.2-1.8-0.2-2.4 0-4.3 1.5-5.4 3.9h-0.1v-3.5h-6.8z"/>
			</g>
		</g>
	</g>
</svg>